<svg width="1400" height="1400" xmlns="http://www.w3.org/2000/svg">
    <path style="display:inline;fill:#adada1;fill-opacity:1;stroke:#52524c;stroke-width:60;stroke-linecap:round;stroke-linejoin:round;stroke-miterlimit:4;stroke-dasharray:none;stroke-opacity:1" d="m524.66 553.567-105.203 50.301-315.61 261.643 145.46 69.266-60.453 88.725 185.07 88.128 122.095-59.37 207.102 98.62 204.945-99.659 123.38 58.753 183.141-89.057-61.41-88.886 142.976-69.524-315.61-260.053-105.204-48.887"/>
    <g style="display:inline">
        <path style="fill:#cfcfc0;fill-opacity:1;stroke:#cfcfc0;stroke-width:3;stroke-linecap:butt;stroke-linejoin:round;stroke-miterlimit:4;stroke-dasharray:none;stroke-opacity:1" d="m419.457 603.868-315.61 261.643 145.46 69.266 205.331-301.366 13.29-6.462z"/>
        <path style="fill:#adada1;fill-opacity:1;stroke:#adada1;stroke-width:3;stroke-linecap:butt;stroke-linejoin:round;stroke-miterlimit:4;stroke-dasharray:none;stroke-opacity:1" d="m749.434 714.835 158.632 336.386-204.945 99.658-1.652-412.72z"/>
        <path style="fill:#cfcfc0;fill-opacity:1;stroke:#cfcfc0;stroke-width:3;stroke-linecap:butt;stroke-linejoin:round;stroke-miterlimit:4;stroke-dasharray:none;stroke-opacity:1" d="m652.998 715.078 48.471 23.081 1.652 412.72-207.102-98.62z"/>
        <path style="fill:#adada1;fill-opacity:1;stroke:#adada1;stroke-width:3;stroke-linecap:butt;stroke-linejoin:round;stroke-miterlimit:4;stroke-dasharray:none;stroke-opacity:1" d="m980.542 602.454 315.612 260.053-142.976 69.524-207.172-299.858-13.429-6.395z"/>
        <path style="fill:#909087;fill-opacity:1;stroke:#909087;stroke-width:3;stroke-linecap:butt;stroke-linejoin:round;stroke-miterlimit:4;stroke-dasharray:none;stroke-opacity:1" d="m749.434 714.835 158.632 336.386 123.38 58.753L762.863 721.23z"/>
        <path style="fill:#f5f5e4;fill-opacity:1;stroke:#f5f5e4;stroke-width:3;stroke-linecap:butt;stroke-linejoin:round;stroke-miterlimit:4;stroke-dasharray:none;stroke-opacity:1" d="m946.006 632.174-26.164 12.72-130.815 63.614-26.162 12.72 268.58 388.747 26.164-12.723 130.817-63.611 26.162-12.723-268.582-388.744z"/>
        <path style="fill:#909087;fill-opacity:1;stroke:#909087;stroke-width:3;stroke-linecap:butt;stroke-linejoin:round;stroke-miterlimit:4;stroke-dasharray:none;stroke-opacity:1" d="M652.998 715.078 496.02 1052.26l-122.095 59.371L639.71 721.54z"/>
        <path style="fill:#f5f5e4;fill-opacity:1;stroke:#f5f5e4;stroke-width:3;stroke-linecap:butt;stroke-linejoin:round;stroke-miterlimit:4;stroke-dasharray:none;stroke-opacity:1" d="m419.457 603.868 48.471 23.081-13.29 6.462 185.071 88.13 13.29-6.463 48.47 23.081 47.965-23.324 13.43 6.394 183.142-89.056-13.429-6.395 47.965-23.324-105.203-48.887v47.703l-174.42 84.815-176.259-83.932v-48.586z"/>
        <path style="display:inline;fill:#e09e53;fill-opacity:1;stroke:#593f21;stroke-width:60;stroke-linecap:butt;stroke-linejoin:round;stroke-miterlimit:4;stroke-dasharray:none;stroke-opacity:1" d="m652.08 249.12-174.422 84.816 47.002 123.302v144.915l176.258 83.932L875.34 601.27V456.354l47.002-78.538-104.857 50.988-118.403-56.382z"/>
        <path style="fill:#f5f5e4;fill-opacity:1;stroke:#f5f5e4;stroke-width:3;stroke-linecap:butt;stroke-linejoin:round;stroke-miterlimit:4;stroke-dasharray:none;stroke-opacity:1" d="m454.639 633.412-265.785 390.09 26.439 12.59 132.193 62.949 26.438 12.59 265.785-390.09-26.44-12.59-132.19-62.95-26.44-12.589z"/>
        <path style="fill:#f7af5c;fill-opacity:1;stroke:#f7af5c;stroke-width:3;stroke-linecap:butt;stroke-linejoin:round;stroke-miterlimit:4;stroke-dasharray:none;stroke-opacity:1" d="m675.228 528.937 23.853-11.599 12.53 5.966-10.693 17.866z"/>
        <path style="fill:#e09e53;fill-opacity:1;stroke:#e09e53;stroke-width:3;stroke-linecap:butt;stroke-linejoin:round;stroke-miterlimit:4;stroke-dasharray:none;stroke-opacity:1" d="M699.081 372.422v144.916l12.53 5.966 36.31-60.673 69.563-33.827zm-221.423-38.486 47.002 123.302 174.421-84.816-47-123.302z"/>
        <path style="fill:#b58043;fill-opacity:1;stroke:#b58043;stroke-width:3;stroke-linecap:butt;stroke-linejoin:round;stroke-miterlimit:4;stroke-dasharray:none;stroke-opacity:1" d="m524.66 457.238 174.421-84.816v144.916l-23.853 11.6z"/>
        <path style="fill:#e09e53;fill-opacity:1;stroke:#e09e53;stroke-width:3;stroke-linecap:butt;stroke-linejoin:round;stroke-miterlimit:4;stroke-dasharray:none;stroke-opacity:1" d="M524.66 457.238v144.915l176.258 83.932V541.17z"/>
        <path style="fill:#b58043;fill-opacity:1;stroke:#b58043;stroke-width:3;stroke-linecap:butt;stroke-linejoin:round;stroke-miterlimit:4;stroke-dasharray:none;stroke-opacity:1" d="m700.918 541.17 47.002-78.539 174.421-84.815-47.002 78.538z"/>
        <path style="fill:#b58043;fill-opacity:1;stroke:#b58043;stroke-width:3;stroke-linecap:butt;stroke-linejoin:round;stroke-miterlimit:4;stroke-dasharray:none;stroke-opacity:1" d="m700.918 541.17 174.421-84.816V601.27l-174.42 84.815z"/>
    </g>
</svg>
