<svg width="1400" height="1400" xmlns:xlink="http://www.w3.org/1999/xlink" xmlns="http://www.w3.org/2000/svg">
    <path style="display:inline;fill:none;stroke:#52524c;stroke-width:8;stroke-linecap:round;stroke-linejoin:round;stroke-miterlimit:4;stroke-dasharray:none;stroke-opacity:1" d="M524.66 538.535 185.411 705.85l68.291 32.52-79.72 38.765-70.136 87.126 145.46 69.266-60.452 88.725 185.07 88.128 122.095-59.37 207.102 98.62 204.945-99.659 123.38 58.754 183.141-89.057-61.41-88.887 142.976-69.524-70.136-86.773-81.51-38.814 66.638-32.404L945.361 571.66l-70.022-33.343"/>
    <g style="display:inline">
        <use x="0" y="0" xlink:href="#a" id="c" transform="translate(13.289 -19.504)" width="100%" height="100%" style="stroke:none;stroke-width:2;stroke-miterlimit:4;stroke-dasharray:none"/>
        <use x="0" y="0" xlink:href="#b" id="d" transform="translate(13.289 -19.504)" width="100%" height="100%" style="stroke:none;stroke-width:2;stroke-miterlimit:4;stroke-dasharray:none"/>
        <use x="0" y="0" xlink:href="#c" id="e" transform="translate(13.289 -19.505)" width="100%" height="100%" style="stroke:none;stroke-width:2;stroke-miterlimit:4;stroke-dasharray:none"/>
        <use x="0" y="0" xlink:href="#d" id="f" transform="translate(13.289 -19.505)" width="100%" height="100%" style="stroke:none;stroke-width:2;stroke-miterlimit:4;stroke-dasharray:none"/>
        <path style="fill:#f5f5e4;fill-opacity:1;stroke:#f5f5e4;stroke-width:2;stroke-linecap:butt;stroke-linejoin:round;stroke-miterlimit:4;stroke-dasharray:none;stroke-opacity:1" d="m215.292 1034.842 13.29-6.463 125.483 59.755-6.58 9.657z" id="a"/>
        <use x="0" y="0" xlink:href="#e" id="g" transform="translate(13.289 -19.504)" width="100%" height="100%" style="stroke:none;stroke-width:2;stroke-miterlimit:4;stroke-dasharray:none"/>
        <use x="0" y="0" xlink:href="#f" id="h" transform="translate(13.289 -19.504)" width="100%" height="100%" style="stroke:none;stroke-width:2;stroke-miterlimit:4;stroke-dasharray:none"/>
        <path style="fill:#cfcfc0;fill-opacity:1;stroke:#cfcfc0;stroke-width:2;stroke-linecap:butt;stroke-linejoin:round;stroke-miterlimit:4;stroke-dasharray:none;stroke-opacity:1" d="M228.583 1028.38v-13.043l132.193 62.95-6.71 9.846z" id="b"/>
        <use x="0" y="0" xlink:href="#g" id="i" transform="translate(13.29 -19.505)" width="100%" height="100%" style="stroke:none;stroke-width:2;stroke-miterlimit:4;stroke-dasharray:none"/>
        <use x="0" y="0" xlink:href="#h" id="j" transform="translate(13.29 -19.505)" width="100%" height="100%" style="stroke:none;stroke-width:2;stroke-miterlimit:4;stroke-dasharray:none"/>
        <use x="0" y="0" xlink:href="#i" id="k" transform="translate(13.289 -19.504)" width="100%" height="100%" style="stroke:none;stroke-width:2;stroke-miterlimit:4;stroke-dasharray:none"/>
        <use x="0" y="0" xlink:href="#j" id="l" transform="translate(13.289 -19.504)" width="100%" height="100%" style="stroke:none;stroke-width:2;stroke-miterlimit:4;stroke-dasharray:none"/>
        <use x="0" y="0" xlink:href="#k" id="m" transform="translate(13.289 -19.505)" width="100%" height="100%" style="stroke:none;stroke-width:2;stroke-miterlimit:4;stroke-dasharray:none"/>
        <use x="0" y="0" xlink:href="#l" id="n" transform="translate(13.289 -19.505)" width="100%" height="100%" style="stroke:none;stroke-width:2;stroke-miterlimit:4;stroke-dasharray:none"/>
        <use x="0" y="0" xlink:href="#m" id="o" transform="translate(13.289 -19.504)" width="100%" height="100%" style="stroke:none;stroke-width:2;stroke-miterlimit:4;stroke-dasharray:none"/>
        <use x="0" y="0" xlink:href="#n" id="p" transform="translate(13.289 -19.504)" width="100%" height="100%" style="stroke:none;stroke-width:2;stroke-miterlimit:4;stroke-dasharray:none"/>
        <use x="0" y="0" xlink:href="#o" id="q" transform="translate(13.289 -19.505)" width="100%" height="100%" style="stroke:none;stroke-width:2;stroke-miterlimit:4;stroke-dasharray:none"/>
        <use x="0" y="0" xlink:href="#p" id="r" transform="translate(13.289 -19.505)" width="100%" height="100%" style="stroke:none;stroke-width:2;stroke-miterlimit:4;stroke-dasharray:none"/>
        <use x="0" y="0" xlink:href="#q" id="s" transform="translate(13.29 -19.504)" width="100%" height="100%" style="stroke:none;stroke-width:2;stroke-miterlimit:4;stroke-dasharray:none"/>
        <use x="0" y="0" xlink:href="#r" id="t" transform="translate(13.29 -19.504)" width="100%" height="100%" style="stroke:none;stroke-width:2;stroke-miterlimit:4;stroke-dasharray:none"/>
        <use xlink:href="#s" transform="translate(13.289 -19.505)" width="100%" height="100%" style="stroke:none;stroke-width:2;stroke-miterlimit:4;stroke-dasharray:none"/>
        <use xlink:href="#t" transform="translate(13.289 -19.505)" width="100%" height="100%" style="stroke:none;stroke-width:2;stroke-miterlimit:4;stroke-dasharray:none"/>
        <use xlink:href="#c" transform="translate(132.893 -195.046)" width="100%" height="100%" style="stroke:none;stroke-width:2;stroke-miterlimit:4;stroke-dasharray:none"/>
        <use xlink:href="#d" transform="translate(132.893 -195.046)" width="100%" height="100%" style="stroke:none;stroke-width:2;stroke-miterlimit:4;stroke-dasharray:none"/>
        <use xlink:href="#e" transform="translate(132.893 -195.046)" width="100%" height="100%" style="stroke:none;stroke-width:2;stroke-miterlimit:4;stroke-dasharray:none"/>
        <use xlink:href="#f" transform="translate(132.893 -195.046)" width="100%" height="100%" style="stroke:none;stroke-width:2;stroke-miterlimit:4;stroke-dasharray:none"/>
        <use xlink:href="#g" transform="translate(132.893 -195.046)" width="100%" height="100%" style="stroke:none;stroke-width:2;stroke-miterlimit:4;stroke-dasharray:none"/>
        <use xlink:href="#h" transform="translate(132.893 -195.046)" width="100%" height="100%" style="stroke:none;stroke-width:2;stroke-miterlimit:4;stroke-dasharray:none"/>
        <use xlink:href="#i" transform="translate(132.893 -195.046)" width="100%" height="100%" style="stroke:none;stroke-width:2;stroke-miterlimit:4;stroke-dasharray:none"/>
        <use xlink:href="#j" transform="translate(132.893 -195.046)" width="100%" height="100%" style="stroke:none;stroke-width:2;stroke-miterlimit:4;stroke-dasharray:none"/>
        <use xlink:href="#k" transform="translate(132.893 -195.046)" width="100%" height="100%" style="stroke:none;stroke-width:2;stroke-miterlimit:4;stroke-dasharray:none"/>
        <use xlink:href="#l" transform="translate(132.893 -195.046)" width="100%" height="100%" style="stroke:none;stroke-width:2;stroke-miterlimit:4;stroke-dasharray:none"/>
        <use xlink:href="#m" transform="translate(132.893 -195.046)" width="100%" height="100%" style="stroke:none;stroke-width:2;stroke-miterlimit:4;stroke-dasharray:none"/>
        <use xlink:href="#n" transform="translate(132.893 -195.046)" width="100%" height="100%" style="stroke:none;stroke-width:2;stroke-miterlimit:4;stroke-dasharray:none"/>
        <use xlink:href="#o" transform="translate(132.893 -195.046)" width="100%" height="100%" style="stroke:none;stroke-width:2;stroke-miterlimit:4;stroke-dasharray:none"/>
        <use xlink:href="#p" transform="translate(132.893 -195.046)" width="100%" height="100%" style="stroke:none;stroke-width:2;stroke-miterlimit:4;stroke-dasharray:none"/>
        <use xlink:href="#q" transform="translate(132.893 -195.046)" width="100%" height="100%" style="stroke:none;stroke-width:2;stroke-miterlimit:4;stroke-dasharray:none"/>
        <use xlink:href="#r" transform="translate(132.893 -195.046)" width="100%" height="100%" style="stroke:none;stroke-width:2;stroke-miterlimit:4;stroke-dasharray:none"/>
        <use xlink:href="#s" transform="translate(132.893 -195.046)" width="100%" height="100%" style="stroke:none;stroke-width:2;stroke-miterlimit:4;stroke-dasharray:none"/>
        <use x="0" y="0" xlink:href="#u" id="C" transform="translate(-53.716 -77.75)" width="100%" height="100%" style="stroke:none;stroke-width:2;stroke-miterlimit:4;stroke-dasharray:none"/>
        <use x="0" y="0" xlink:href="#v" id="D" transform="translate(-53.716 -77.75)" width="100%" height="100%" style="stroke:none;stroke-width:2;stroke-miterlimit:4;stroke-dasharray:none"/>
        <use x="0" y="0" xlink:href="#w" id="E" transform="translate(-53.716 -77.75)" width="100%" height="100%" style="stroke:none;stroke-width:2;stroke-miterlimit:4;stroke-dasharray:none"/>
        <use x="0" y="0" xlink:href="#x" id="F" transform="translate(-53.716 -77.75)" width="100%" height="100%" style="stroke:none;stroke-width:2;stroke-miterlimit:4;stroke-dasharray:none"/>
        <use x="0" y="0" xlink:href="#y" id="G" transform="translate(-53.717 -77.748)" width="100%" height="100%" style="stroke:none;stroke-width:2;stroke-miterlimit:4;stroke-dasharray:none"/>
        <use x="0" y="0" xlink:href="#z" id="H" transform="translate(-53.717 -77.748)" width="100%" height="100%" style="stroke:none;stroke-width:2;stroke-miterlimit:4;stroke-dasharray:none"/>
        <use x="0" y="0" xlink:href="#A" id="I" transform="translate(-53.717 -77.748)" width="100%" height="100%" style="stroke:none;stroke-width:2;stroke-miterlimit:4;stroke-dasharray:none"/>
        <use x="0" y="0" xlink:href="#B" id="J" transform="translate(-53.717 -77.748)" width="100%" height="100%" style="stroke:none;stroke-width:2;stroke-miterlimit:4;stroke-dasharray:none"/>
        <use x="0" y="0" xlink:href="#C" id="K" transform="translate(-53.717 -77.748)" width="100%" height="100%" style="stroke:none;stroke-width:2;stroke-miterlimit:4;stroke-dasharray:none"/>
        <use x="0" y="0" xlink:href="#D" id="L" transform="translate(-53.717 -77.748)" width="100%" height="100%" style="stroke:none;stroke-width:2;stroke-miterlimit:4;stroke-dasharray:none"/>
        <use x="0" y="0" xlink:href="#E" id="M" transform="translate(-53.717 -77.748)" width="100%" height="100%" style="stroke:none;stroke-width:2;stroke-miterlimit:4;stroke-dasharray:none"/>
        <use x="0" y="0" xlink:href="#F" id="N" transform="translate(-53.717 -77.748)" width="100%" height="100%" style="stroke:none;stroke-width:2;stroke-miterlimit:4;stroke-dasharray:none"/>
        <use xlink:href="#G" transform="translate(-53.717 -77.748)" width="100%" height="100%" style="stroke:none;stroke-width:2;stroke-miterlimit:4;stroke-dasharray:none"/>
        <use xlink:href="#H" transform="translate(-53.717 -77.748)" width="100%" height="100%" style="stroke:none;stroke-width:2;stroke-miterlimit:4;stroke-dasharray:none"/>
        <use xlink:href="#I" transform="translate(-53.717 -77.748)" width="100%" height="100%" style="stroke:none;stroke-width:2;stroke-miterlimit:4;stroke-dasharray:none"/>
        <use xlink:href="#J" transform="translate(-53.717 -77.748)" width="100%" height="100%" style="stroke:none;stroke-width:2;stroke-miterlimit:4;stroke-dasharray:none"/>
        <use xlink:href="#K" transform="translate(-53.717 -77.748)" width="100%" height="100%" style="stroke:none;stroke-width:2;stroke-miterlimit:4;stroke-dasharray:none"/>
        <use xlink:href="#L" transform="translate(-53.717 -77.748)" width="100%" height="100%" style="stroke:none;stroke-width:2;stroke-miterlimit:4;stroke-dasharray:none"/>
        <use x="0" y="0" xlink:href="#M" id="O" transform="translate(-53.717 -77.748)" width="100%" height="100%" style="stroke:none;stroke-width:2;stroke-miterlimit:4;stroke-dasharray:none"/>
        <use x="0" y="0" xlink:href="#N" id="Z" transform="translate(-53.717 -77.748)" width="100%" height="100%" style="stroke:none;stroke-width:2;stroke-miterlimit:4;stroke-dasharray:none"/>
        <use xlink:href="#O" transform="translate(-13.429 -19.437)" width="100%" height="100%" style="stroke:none;stroke-width:2;stroke-miterlimit:4;stroke-dasharray:none"/>
        <use x="0" y="0" xlink:href="#P" id="R" transform="translate(-13.428 -19.437)" width="100%" height="100%" style="stroke:none;stroke-width:2;stroke-miterlimit:4;stroke-dasharray:none"/>
        <use x="0" y="0" xlink:href="#Q" id="S" transform="translate(-13.429 -19.438)" width="100%" height="100%" style="stroke:none;stroke-width:2;stroke-miterlimit:4;stroke-dasharray:none"/>
        <use x="0" y="0" xlink:href="#R" id="T" transform="translate(-13.429 -19.438)" width="100%" height="100%" style="stroke:none;stroke-width:2;stroke-miterlimit:4;stroke-dasharray:none"/>
        <use x="0" y="0" xlink:href="#Q" id="U" transform="translate(-26.859 -38.874)" width="100%" height="100%" style="stroke:none;stroke-width:2;stroke-miterlimit:4;stroke-dasharray:none"/>
        <use x="0" y="0" xlink:href="#R" id="V" transform="translate(-26.859 -38.874)" width="100%" height="100%" style="stroke:none;stroke-width:2;stroke-miterlimit:4;stroke-dasharray:none"/>
        <use x="0" y="0" xlink:href="#S" id="W" transform="translate(-26.859 -38.874)" width="100%" height="100%" style="stroke:none;stroke-width:2;stroke-miterlimit:4;stroke-dasharray:none"/>
        <use x="0" y="0" xlink:href="#T" id="X" transform="translate(-26.859 -38.874)" width="100%" height="100%" style="stroke:none;stroke-width:2;stroke-miterlimit:4;stroke-dasharray:none"/>
        <use x="0" y="0" xlink:href="#U" id="u" transform="translate(-26.858 -38.875)" width="100%" height="100%" style="stroke:none;stroke-width:2;stroke-miterlimit:4;stroke-dasharray:none"/>
        <use x="0" y="0" xlink:href="#V" id="v" transform="translate(-26.858 -38.875)" width="100%" height="100%" style="stroke:none;stroke-width:2;stroke-miterlimit:4;stroke-dasharray:none"/>
        <use x="0" y="0" xlink:href="#W" id="w" transform="translate(-26.858 -38.875)" width="100%" height="100%" style="stroke:none;stroke-width:2;stroke-miterlimit:4;stroke-dasharray:none"/>
        <use x="0" y="0" xlink:href="#X" id="x" transform="translate(-26.858 -38.875)" width="100%" height="100%" style="stroke:none;stroke-width:2;stroke-miterlimit:4;stroke-dasharray:none"/>
        <use x="0" y="0" xlink:href="#U" id="y" transform="translate(-53.716 -77.75)" width="100%" height="100%" style="stroke:none;stroke-width:2;stroke-miterlimit:4;stroke-dasharray:none"/>
        <use x="0" y="0" xlink:href="#V" id="z" transform="translate(-53.716 -77.75)" width="100%" height="100%" style="stroke:none;stroke-width:2;stroke-miterlimit:4;stroke-dasharray:none"/>
        <use x="0" y="0" xlink:href="#W" id="A" transform="translate(-53.716 -77.75)" width="100%" height="100%" style="stroke:none;stroke-width:2;stroke-miterlimit:4;stroke-dasharray:none"/>
        <use x="0" y="0" xlink:href="#X" id="B" transform="translate(-53.716 -77.75)" width="100%" height="100%" style="stroke:none;stroke-width:2;stroke-miterlimit:4;stroke-dasharray:none"/>
        <use x="0" y="0" xlink:href="#Y" id="Q" transform="translate(-13.428 -19.437)" width="100%" height="100%" style="stroke:none;stroke-width:2;stroke-miterlimit:4;stroke-dasharray:none"/>
        <path style="fill:#f5f5e4;fill-opacity:1;stroke:#f5f5e4;stroke-width:2;stroke-linecap:butt;stroke-linejoin:round;stroke-miterlimit:4;stroke-dasharray:none;stroke-opacity:1" d="m1050.926 1086.328 124.07-60.332 13.428 6.394-130.814 63.611z" id="Y"/>
        <path style="fill:#adada1;fill-opacity:1;stroke:#adada1;stroke-width:2;stroke-linecap:butt;stroke-linejoin:round;stroke-miterlimit:4;stroke-dasharray:none;stroke-opacity:1" d="M1174.995 1012.953v13.042l-124.07 60.333-6.744-9.763z" id="P"/>
        <path style="fill:#cfcfc0;fill-opacity:1;stroke:#cfcfc0;stroke-width:2;stroke-linecap:butt;stroke-linejoin:round;stroke-miterlimit:4;stroke-dasharray:none;stroke-opacity:1" d="M185.411 705.85 453.993 572.9l13.43 6.393-47.966 23.325-36.476 45.312-86.262 41.946-36.476 45.313-6.54 3.181z"/>
        <path style="fill:#cfcfc0;fill-opacity:1;stroke:#cfcfc0;stroke-width:2;stroke-linecap:butt;stroke-linejoin:round;stroke-miterlimit:4;stroke-dasharray:none;stroke-opacity:1" d="m419.457 602.618-70.136 87.126 49.896 23.76 55.422-81.343 13.29-6.462z"/>
        <path style="fill:#f5f5e4;fill-opacity:1;stroke:#f5f5e4;stroke-width:2;stroke-linecap:butt;stroke-linejoin:round;stroke-miterlimit:4;stroke-dasharray:none;stroke-opacity:1" d="m419.457 602.618 48.471 23.081-13.29 6.462 185.071 88.13 13.29-6.463 48.47 23.081 47.965-23.324 13.43 6.394 183.142-89.056-13.429-6.395 47.965-23.324-47.807-22.765 12.626-6.779-70.022-33.343v61.703l-174.42 84.815-176.258-83.932v-62.368L453.993 572.9l13.43 6.394zm-36.476 45.312-86.262 41.946 89.544 42.64 12.954-19.013-49.896-23.759z"/>
        <path style="fill:#cfcfc0;fill-opacity:1;stroke:#cfcfc0;stroke-width:2;stroke-linecap:butt;stroke-linejoin:round;stroke-miterlimit:4;stroke-dasharray:none;stroke-opacity:1" d="m296.72 689.876-70.136 87.126 97.677 46.513 62.002-90.999z"/>
        <path style="fill:#f5f5e4;fill-opacity:1;stroke:#f5f5e4;stroke-width:2;stroke-linecap:butt;stroke-linejoin:round;stroke-miterlimit:4;stroke-dasharray:none;stroke-opacity:1" d="m260.243 735.19-86.26 41.945 137.324 65.393 12.954-19.013-97.677-46.513z"/>
        <path style="fill:#cfcfc0;fill-opacity:1;stroke:#cfcfc0;stroke-width:2;stroke-linecap:butt;stroke-linejoin:round;stroke-miterlimit:4;stroke-dasharray:none;stroke-opacity:1" d="m173.982 777.135 137.325 65.393-62 91-145.46-69.267z"/>
        <path style="fill:#adada1;fill-opacity:1;stroke:#adada1;stroke-width:2;stroke-linecap:butt;stroke-linejoin:round;stroke-miterlimit:4;stroke-dasharray:none;stroke-opacity:1" d="m1226.017 774.484 70.136 86.773-142.976 69.524-62.512-90.479zM945.361 571.66l265.784 131.606-66.637 32.404-4.18-1.99-37.047-45.836-85.69-40.805-37.048-45.835-47.807-22.765z"/>
        <path style="fill:#f5f5e4;fill-opacity:1;stroke:#f5f5e4;stroke-width:2;stroke-linecap:butt;stroke-linejoin:round;stroke-miterlimit:4;stroke-dasharray:none;stroke-opacity:1" d="m1140.328 733.68 85.69 40.804-135.352 65.818-13.16-19.047 95.91-46.638z"/>
        <path style="fill:#cfcfc0;fill-opacity:1;stroke:#cfcfc0;stroke-width:2;stroke-linecap:butt;stroke-linejoin:round;stroke-miterlimit:4;stroke-dasharray:none;stroke-opacity:1" d="m652.999 713.828 48.47 23.081.367 120.7-83.722-39.869z"/>
        <path style="fill:#adada1;fill-opacity:1;stroke:#adada1;stroke-width:2;stroke-linecap:butt;stroke-linejoin:round;stroke-miterlimit:4;stroke-dasharray:none;stroke-opacity:1" d="m749.434 713.585 35.252 103.735-82.85 40.288-.367-120.699z"/>
        <path style="fill:#f5f5e4;fill-opacity:1;stroke:#f5f5e4;stroke-width:2;stroke-linecap:butt;stroke-linejoin:round;stroke-miterlimit:4;stroke-dasharray:none;stroke-opacity:1" d="m784.687 817.32 26.438 12.59-109.013 53.01-110.161-52.458 26.163-12.722 83.722 39.868z"/>
        <path style="fill:#cfcfc0;fill-opacity:1;stroke:#cfcfc0;stroke-width:2;stroke-linecap:butt;stroke-linejoin:round;stroke-miterlimit:4;stroke-dasharray:none;stroke-opacity:1" d="m702.111 882.92.367 120.7-145.412-69.245 34.884-103.913z"/>
        <path style="fill:#adada1;fill-opacity:1;stroke:#adada1;stroke-width:2;stroke-linecap:butt;stroke-linejoin:round;stroke-miterlimit:4;stroke-dasharray:none;stroke-opacity:1" d="m702.111 882.92 109.013-53.01 35.252 103.736-143.898 69.974z"/>
        <path style="fill:#f5f5e4;fill-opacity:1;stroke:#f5f5e4;stroke-width:2;stroke-linecap:butt;stroke-linejoin:round;stroke-miterlimit:4;stroke-dasharray:none;stroke-opacity:1" d="m557.067 934.375-26.163 12.722 171.85 81.835 170.06-82.697-26.438-12.589-143.898 69.973z"/>
        <path style="fill:#cfcfc0;fill-opacity:1;stroke:#cfcfc0;stroke-width:2;stroke-linecap:butt;stroke-linejoin:round;stroke-miterlimit:4;stroke-dasharray:none;stroke-opacity:1" d="m703.121 1149.63-.367-120.699-171.85-81.834-34.884 103.912z"/>
        <path style="fill:#adada1;fill-opacity:1;stroke:#adada1;stroke-width:2;stroke-linecap:butt;stroke-linejoin:round;stroke-miterlimit:4;stroke-dasharray:none;stroke-opacity:1" d="m872.814 946.235 35.252 103.737-204.945 99.658-.367-120.699z"/>
        <path style="fill:#f5f5e4;fill-opacity:1;stroke:#f5f5e4;stroke-width:2;stroke-linecap:butt;stroke-linejoin:round;stroke-miterlimit:4;stroke-dasharray:none;stroke-opacity:1" d="m613.27 707.7-265.785 390.091 26.44 12.59 265.784-390.09zm149.595 12.28 26.163-12.723 268.582 388.745-26.164 12.723z"/>
        <use xlink:href="#Z" transform="translate(-13.429 -19.437)" width="100%" height="100%" style="stroke:none;stroke-width:2;stroke-miterlimit:4;stroke-dasharray:none"/>
        <path style="display:inline;fill:none;stroke:#593f21;stroke-width:8;stroke-linecap:butt;stroke-linejoin:round;stroke-miterlimit:4;stroke-dasharray:none;stroke-opacity:1" d="m652.08 247.87-174.422 84.816 47.002 123.302v144.915l176.258 83.932L875.34 600.02V455.104l47.002-78.538-104.857 50.988-118.403-56.382z"/>
        <path style="fill:#f5f5e4;fill-opacity:1;stroke:#f5f5e4;stroke-width:2;stroke-linecap:butt;stroke-linejoin:round;stroke-miterlimit:4;stroke-dasharray:none;stroke-opacity:1" d="M1214.588 1019.668 946.007 630.923l-26.164 12.722 268.583 388.745zm-1025.733 2.585L454.639 632.16l26.439 12.59-265.785 390.092z"/>
        <path style="fill:#909087;fill-opacity:1;stroke:#909087;stroke-width:2;stroke-linecap:butt;stroke-linejoin:round;stroke-miterlimit:4;stroke-dasharray:none;stroke-opacity:1" d="M652.999 713.828 618.115 817.74l-26.164 12.722-34.884 103.913-26.163 12.722-34.884 103.913-122.095 59.37 265.784-390.09z"/>
        <path style="fill:#909087;fill-opacity:1;stroke:#909087;stroke-width:2;stroke-linecap:butt;stroke-linejoin:round;stroke-miterlimit:4;stroke-dasharray:none;stroke-opacity:1" d="m215.292 1034.842 13.29-6.463v-13.041z" id="aa"/>
        <use x="0" y="0" xlink:href="#aa" id="ab" transform="translate(13.289 -19.504)" width="100%" height="100%" style="stroke:none;stroke-width:2;stroke-miterlimit:4;stroke-dasharray:none"/>
        <use x="0" y="0" xlink:href="#ab" id="ac" transform="translate(13.289 -19.505)" width="100%" height="100%" style="stroke:none;stroke-width:2;stroke-miterlimit:4;stroke-dasharray:none"/>
        <use x="0" y="0" xlink:href="#ac" id="ad" transform="translate(13.289 -19.504)" width="100%" height="100%" style="stroke:none;stroke-width:2;stroke-miterlimit:4;stroke-dasharray:none"/>
        <use x="0" y="0" xlink:href="#ad" id="ae" transform="translate(13.29 -19.505)" width="100%" height="100%" style="stroke:none;stroke-width:2;stroke-miterlimit:4;stroke-dasharray:none"/>
        <use x="0" y="0" xlink:href="#ae" id="af" transform="translate(13.289 -19.504)" width="100%" height="100%" style="stroke:none;stroke-width:2;stroke-miterlimit:4;stroke-dasharray:none"/>
        <use x="0" y="0" xlink:href="#af" id="ag" transform="translate(13.289 -19.505)" width="100%" height="100%" style="stroke:none;stroke-width:2;stroke-miterlimit:4;stroke-dasharray:none"/>
        <use x="0" y="0" xlink:href="#ag" id="ah" transform="translate(13.289 -19.504)" width="100%" height="100%" style="stroke:none;stroke-width:2;stroke-miterlimit:4;stroke-dasharray:none"/>
        <use x="0" y="0" xlink:href="#ah" id="ai" transform="translate(13.289 -19.505)" width="100%" height="100%" style="stroke:none;stroke-width:2;stroke-miterlimit:4;stroke-dasharray:none"/>
        <use x="0" y="0" xlink:href="#ai" id="aj" transform="translate(13.29 -19.504)" width="100%" height="100%" style="stroke:none;stroke-width:2;stroke-miterlimit:4;stroke-dasharray:none"/>
        <use xlink:href="#aj" transform="translate(13.289 -19.505)" width="100%" height="100%" style="stroke:none;stroke-width:2;stroke-miterlimit:4;stroke-dasharray:none"/>
        <use xlink:href="#ab" transform="translate(132.893 -195.046)" width="100%" height="100%" style="stroke:none;stroke-width:2;stroke-miterlimit:4;stroke-dasharray:none"/>
        <use xlink:href="#ac" transform="translate(132.893 -195.046)" width="100%" height="100%" style="stroke:none;stroke-width:2;stroke-miterlimit:4;stroke-dasharray:none"/>
        <use xlink:href="#ad" transform="translate(132.893 -195.046)" width="100%" height="100%" style="stroke:none;stroke-width:2;stroke-miterlimit:4;stroke-dasharray:none"/>
        <use xlink:href="#ae" transform="translate(132.893 -195.046)" width="100%" height="100%" style="stroke:none;stroke-width:2;stroke-miterlimit:4;stroke-dasharray:none"/>
        <use xlink:href="#af" transform="translate(132.893 -195.046)" width="100%" height="100%" style="stroke:none;stroke-width:2;stroke-miterlimit:4;stroke-dasharray:none"/>
        <use xlink:href="#ag" transform="translate(132.893 -195.046)" width="100%" height="100%" style="stroke:none;stroke-width:2;stroke-miterlimit:4;stroke-dasharray:none"/>
        <use xlink:href="#ah" transform="translate(132.893 -195.046)" width="100%" height="100%" style="stroke:none;stroke-width:2;stroke-miterlimit:4;stroke-dasharray:none"/>
        <use xlink:href="#ai" transform="translate(132.893 -195.046)" width="100%" height="100%" style="stroke:none;stroke-width:2;stroke-miterlimit:4;stroke-dasharray:none"/>
        <use xlink:href="#t" transform="translate(132.893 -195.046)" width="100%" height="100%" style="stroke:none;stroke-width:2;stroke-miterlimit:4;stroke-dasharray:none"/>
        <path style="fill:#f7af5c;fill-opacity:1;stroke:#f7af5c;stroke-width:2;stroke-linecap:butt;stroke-linejoin:round;stroke-miterlimit:4;stroke-dasharray:none;stroke-opacity:1" d="m675.229 527.687 23.853-11.599 12.529 5.966-10.692 17.866z"/>
        <use xlink:href="#aj" transform="translate(132.893 -195.046)" width="100%" height="100%" style="stroke:none;stroke-width:2;stroke-miterlimit:4;stroke-dasharray:none"/>
        <path style="fill:#e09e53;fill-opacity:1;stroke:#e09e53;stroke-width:2;stroke-linecap:butt;stroke-linejoin:round;stroke-miterlimit:4;stroke-dasharray:none;stroke-opacity:1" d="M699.082 371.172v144.916l12.529 5.966 36.31-60.673 69.563-33.827z"/>
        <path style="fill:#909087;fill-opacity:1;stroke:#909087;stroke-width:2;stroke-linecap:butt;stroke-linejoin:round;stroke-miterlimit:4;stroke-dasharray:none;stroke-opacity:1" d="M1174.995 1012.953v13.042l13.43 6.396z" id="ak"/>
        <use x="0" y="0" xlink:href="#ak" id="al" transform="translate(-13.428 -19.437)" width="100%" height="100%" style="stroke:none;stroke-width:2;stroke-miterlimit:4;stroke-dasharray:none"/>
        <use x="0" y="0" xlink:href="#al" id="am" transform="translate(-13.429 -19.438)" width="100%" height="100%" style="stroke:none;stroke-width:2;stroke-miterlimit:4;stroke-dasharray:none"/>
        <use x="0" y="0" xlink:href="#al" id="an" transform="translate(-26.859 -38.874)" width="100%" height="100%" style="stroke:none;stroke-width:2;stroke-miterlimit:4;stroke-dasharray:none"/>
        <use x="0" y="0" xlink:href="#am" id="ao" transform="translate(-26.859 -38.874)" width="100%" height="100%" style="stroke:none;stroke-width:2;stroke-miterlimit:4;stroke-dasharray:none"/>
        <use x="0" y="0" xlink:href="#an" id="ap" transform="translate(-26.858 -38.875)" width="100%" height="100%" style="stroke:none;stroke-width:2;stroke-miterlimit:4;stroke-dasharray:none"/>
        <use x="0" y="0" xlink:href="#ao" id="aq" transform="translate(-26.858 -38.875)" width="100%" height="100%" style="stroke:none;stroke-width:2;stroke-miterlimit:4;stroke-dasharray:none"/>
        <use x="0" y="0" xlink:href="#an" id="ar" transform="translate(-53.716 -77.75)" width="100%" height="100%" style="stroke:none;stroke-width:2;stroke-miterlimit:4;stroke-dasharray:none"/>
        <use x="0" y="0" xlink:href="#ao" id="as" transform="translate(-53.716 -77.75)" width="100%" height="100%" style="stroke:none;stroke-width:2;stroke-miterlimit:4;stroke-dasharray:none"/>
        <use x="0" y="0" xlink:href="#ap" id="at" transform="translate(-53.716 -77.75)" width="100%" height="100%" style="stroke:none;stroke-width:2;stroke-miterlimit:4;stroke-dasharray:none"/>
        <path style="fill:#f5f5e4;fill-opacity:1;stroke:#f5f5e4;stroke-width:2;stroke-linecap:butt;stroke-linejoin:round;stroke-miterlimit:4;stroke-dasharray:none;stroke-opacity:1" d="m1017.59 647.04 85.69 40.804-88.286 42.931-13.16-19.047 48.845-23.75z"/>
        <path style="fill:#909087;fill-opacity:1;stroke:#909087;stroke-width:2;stroke-linecap:butt;stroke-linejoin:round;stroke-miterlimit:4;stroke-dasharray:none;stroke-opacity:1" d="m749.434 713.585 35.252 103.735 26.44 12.59 35.25 103.736 26.438 12.59 35.252 103.736 123.38 58.753-268.582-388.746z"/>
        <use x="0" y="0" xlink:href="#aq" id="au" transform="translate(-53.716 -77.75)" width="100%" height="100%" style="stroke:none;stroke-width:2;stroke-miterlimit:4;stroke-dasharray:none"/>
        <use x="0" y="0" xlink:href="#ar" id="av" transform="translate(-53.717 -77.748)" width="100%" height="100%" style="stroke:none;stroke-width:2;stroke-miterlimit:4;stroke-dasharray:none"/>
        <use x="0" y="0" xlink:href="#as" id="aw" transform="translate(-53.717 -77.748)" width="100%" height="100%" style="stroke:none;stroke-width:2;stroke-miterlimit:4;stroke-dasharray:none"/>
        <use x="0" y="0" xlink:href="#at" id="ax" transform="translate(-53.717 -77.748)" width="100%" height="100%" style="stroke:none;stroke-width:2;stroke-miterlimit:4;stroke-dasharray:none"/>
        <use x="0" y="0" xlink:href="#au" id="ay" transform="translate(-53.717 -77.748)" width="100%" height="100%" style="stroke:none;stroke-width:2;stroke-miterlimit:4;stroke-dasharray:none"/>
        <use xlink:href="#av" transform="translate(-53.717 -77.748)" width="100%" height="100%" style="stroke:none;stroke-width:2;stroke-miterlimit:4;stroke-dasharray:none"/>
        <use xlink:href="#aw" transform="translate(-53.717 -77.748)" width="100%" height="100%" style="stroke:none;stroke-width:2;stroke-miterlimit:4;stroke-dasharray:none"/>
        <use xlink:href="#ax" transform="translate(-53.717 -77.748)" width="100%" height="100%" style="stroke:none;stroke-width:2;stroke-miterlimit:4;stroke-dasharray:none"/>
        <use x="0" y="0" xlink:href="#ay" id="az" transform="translate(-53.717 -77.748)" width="100%" height="100%" style="stroke:none;stroke-width:2;stroke-miterlimit:4;stroke-dasharray:none"/>
        <use xlink:href="#az" transform="translate(-13.429 -19.437)" width="100%" height="100%" style="stroke:none;stroke-width:2;stroke-miterlimit:4;stroke-dasharray:none"/>
        <path style="fill:#b58043;fill-opacity:1;stroke:#b58043;stroke-width:2;stroke-linecap:butt;stroke-linejoin:round;stroke-miterlimit:4;stroke-dasharray:none;stroke-opacity:1" d="m700.918 539.92 47.002-78.539 174.421-84.815-47.002 78.538z"/>
        <path style="fill:#e09e53;fill-opacity:1;stroke:#e09e53;stroke-width:2;stroke-linecap:butt;stroke-linejoin:round;stroke-miterlimit:4;stroke-dasharray:none;stroke-opacity:1" d="m477.659 332.686 47.002 123.302 174.42-84.816-47-123.302z"/>
        <path style="fill:#b58043;fill-opacity:1;stroke:#b58043;stroke-width:2;stroke-linecap:butt;stroke-linejoin:round;stroke-miterlimit:4;stroke-dasharray:none;stroke-opacity:1" d="m524.66 455.988 174.421-84.816v144.916l-23.853 11.6z"/>
        <path style="fill:#e09e53;fill-opacity:1;stroke:#e09e53;stroke-width:2;stroke-linecap:butt;stroke-linejoin:round;stroke-miterlimit:4;stroke-dasharray:none;stroke-opacity:1" d="M524.66 455.988v144.915l176.258 83.932V539.92z"/>
        <path style="fill:#b58043;fill-opacity:1;stroke:#b58043;stroke-width:2;stroke-linecap:butt;stroke-linejoin:round;stroke-miterlimit:4;stroke-dasharray:none;stroke-opacity:1" d="m700.918 539.92 174.421-84.816V600.02l-174.42 84.815z"/>
        <path style="fill:#adada1;fill-opacity:1;stroke:#adada1;stroke-width:2;stroke-linecap:butt;stroke-linejoin:round;stroke-miterlimit:4;stroke-dasharray:none;stroke-opacity:1" d="m980.543 601.204 70.136 86.773-48.845 23.751-55.828-80.805-13.429-6.395zm122.737 86.64 70.136 86.773-95.91 46.638-62.513-90.48z"/>
    </g>
</svg>
